<svg width="32" height="32" viewBox="0 0 32 32" fill="none" xmlns="http://www.w3.org/2000/svg">
<g clip-path="url(#clip0_454_17182)">
<path d="M17.3333 9.33342H14.6666V14.6667H9.33329V17.3334H14.6666V22.6667H17.3333V17.3334H22.6666V14.6667H17.3333V9.33342ZM16 2.66675C8.63996 2.66675 2.66663 8.64008 2.66663 16.0001C2.66663 23.3601 8.63996 29.3334 16 29.3334C23.36 29.3334 29.3333 23.3601 29.3333 16.0001C29.3333 8.64008 23.36 2.66675 16 2.66675ZM16 26.6667C10.12 26.6667 5.33329 21.8801 5.33329 16.0001C5.33329 10.1201 10.12 5.33341 16 5.33341C21.88 5.33341 26.6666 10.1201 26.6666 16.0001C26.6666 21.8801 21.88 26.6667 16 26.6667Z" fill="#1771E5"/>
</g>
<defs>
<clipPath id="clip0_454_17182">
<rect width="32" height="32" fill="white"/>
</clipPath>
</defs>
</svg>
