<svg width="32" height="32" viewBox="0 0 32 32" fill="none" xmlns="http://www.w3.org/2000/svg">
<g clip-path="url(#clip0_454_17174)">
<path d="M21.6569 12.2287L19.7712 10.3431L16 14.1144L12.2288 10.3431L10.3431 12.2287L14.1144 16L10.3431 19.7712L12.2288 21.6568L16 17.8856L19.7712 21.6568L21.6569 19.7712L17.8856 16L21.6569 12.2287ZM25.4281 6.57189C20.2238 1.36758 11.7762 1.36758 6.57191 6.57189C1.3676 11.7762 1.3676 20.2238 6.57191 25.4281C11.7762 30.6324 20.2238 30.6324 25.4281 25.4281C30.6324 20.2238 30.6324 11.7762 25.4281 6.57189ZM8.45753 23.5425C4.29974 19.3847 4.29974 12.6153 8.45753 8.45751C12.6153 4.29972 19.3847 4.29972 23.5425 8.45751C27.7003 12.6153 27.7003 19.3847 23.5425 23.5425C19.3847 27.7002 12.6153 27.7002 8.45753 23.5425Z" fill="black"/>
</g>
<defs>
<clipPath id="clip0_454_17174">
<rect width="32" height="32" fill="white"/>
</clipPath>
</defs>
</svg>
