<svg width="32" height="32" viewBox="0 0 32 32" fill="none" xmlns="http://www.w3.org/2000/svg">
<g clip-path="url(#clip0_580_1794)">
<path fill-rule="evenodd" clip-rule="evenodd" d="M24 32H8C6.94939 32.0001 5.90905 31.7933 4.93839 31.3913C3.96773 30.9893 3.08577 30.4 2.34288 29.6571C1.59999 28.9142 1.01072 28.0323 0.608723 27.0616C0.206727 26.091 -0.000118163 25.0506 5.06411e-08 24V8C-0.000118163 6.94939 0.206727 5.90905 0.608723 4.93839C1.01072 3.96773 1.59999 3.08577 2.34288 2.34288C3.08577 1.59999 3.96773 1.01072 4.93839 0.608723C5.90905 0.206727 6.94939 -0.000118163 8 5.06411e-08H24C25.0506 -0.000118163 26.091 0.206727 27.0616 0.608723C28.0323 1.01072 28.9142 1.59999 29.6571 2.34288C30.4 3.08577 30.9893 3.96773 31.3913 4.93839C31.7933 5.90905 32.0001 6.94939 32 8V24C32.0001 25.0506 31.7933 26.091 31.3913 27.0616C30.9893 28.0323 30.4 28.9142 29.6571 29.6571C28.9142 30.4 28.0323 30.9893 27.0616 31.3913C26.091 31.7933 25.0506 32.0001 24 32Z" fill="#E5ECF7"/>
<path fill-rule="evenodd" clip-rule="evenodd" d="M15 9H24C25.1536 8.99993 26.2632 8.55683 27.0995 7.7622C27.9359 6.96758 28.4351 5.88213 28.4941 4.73C28.5532 3.57788 28.1675 2.44708 27.4168 1.57113C26.666 0.695185 25.6076 0.140991 24.46 0.0230001C24.305 0.0145 24.155 5.06411e-08 24 5.06411e-08H8C6.94939 -0.000118163 5.90905 0.206727 4.93839 0.608723C3.96773 1.01072 3.08577 1.59999 2.34288 2.34288C1.59999 3.08577 1.01072 3.96773 0.608723 4.93839C0.206727 5.90905 -0.000118163 6.94939 5.06411e-08 8V24C5.06411e-08 20.0218 1.58035 16.2064 4.3934 13.3934C7.20644 10.5804 11.0218 9 15 9Z" fill="#E5ECF7"/>
<path fill-rule="evenodd" clip-rule="evenodd" d="M24 16C22.4177 16 20.871 16.4692 19.5554 17.3482C18.2398 18.2273 17.2145 19.4767 16.609 20.9385C16.0035 22.4003 15.845 24.0089 16.1537 25.5607C16.4624 27.1126 17.2243 28.538 18.3431 29.6569C19.462 30.7757 20.8874 31.5376 22.4393 31.8463C23.9911 32.155 25.5997 31.9965 27.0615 31.391C28.5233 30.7855 29.7727 29.7602 30.6517 28.4446C31.5308 27.129 32 25.5823 32 24V8C32.0001 9.05061 31.7933 10.0909 31.3913 11.0616C30.9893 12.0323 30.4 12.9142 29.6571 13.6571C28.9142 14.4 28.0323 14.9893 27.0616 15.3913C26.0909 15.7933 25.0506 16.0001 24 16Z" fill="#E5ECF7"/>
<path d="M13.915 15.7315C13.6595 15.7097 13.4034 15.7656 13.1802 15.8918C12.9571 16.018 12.7772 16.2087 12.6642 16.4388C12.5511 16.669 12.5103 16.9279 12.5468 17.1817C12.5834 17.4355 12.6958 17.6723 12.8693 17.8611C13.0427 18.05 13.2691 18.1821 13.5189 18.2401C13.7686 18.2981 14.0301 18.2793 14.269 18.1863C14.5079 18.0932 14.7132 17.9302 14.8579 17.7185C15.0026 17.5068 15.08 17.2564 15.08 17C15.0937 16.6773 14.9787 16.3624 14.7602 16.1245C14.5417 15.8866 14.2377 15.7453 13.915 15.7315Z" fill="#1771E5"/>
<path d="M18.0851 15.7315C17.8296 15.7097 17.5735 15.7656 17.3503 15.8918C17.1271 16.018 16.9472 16.2087 16.8342 16.4388C16.7212 16.669 16.6803 16.9279 16.7169 17.1817C16.7535 17.4355 16.8659 17.6723 17.0393 17.8611C17.2127 18.05 17.4392 18.1821 17.6889 18.2401C17.9387 18.2981 18.2001 18.2793 18.4391 18.1863C18.678 18.0932 18.8832 17.9302 19.0279 17.7185C19.1726 17.5068 19.2501 17.2564 19.2501 17C19.2637 16.6773 19.1487 16.3624 18.9302 16.1245C18.7118 15.8866 18.4078 15.7453 18.0851 15.7315Z" fill="#1771E5"/>
<path d="M26 8.49701C26.0008 8.18841 25.9408 7.88269 25.8233 7.59732C25.7059 7.31195 25.5333 7.05253 25.3155 6.8339C25.0977 6.61527 24.839 6.44172 24.554 6.32317C24.2691 6.20462 23.9636 6.1434 23.655 6.14301H8.34501C8.03641 6.1434 7.73092 6.20462 7.446 6.32317C7.16109 6.44172 6.90233 6.61527 6.68454 6.8339C6.46675 7.05253 6.29419 7.31195 6.17673 7.59732C6.05927 7.88269 5.99922 8.18841 6.00001 8.49701V23.6455C5.99917 23.9541 6.05919 24.2599 6.17662 24.5453C6.29406 24.8308 6.46661 25.0902 6.6844 25.3089C6.9022 25.5276 7.16097 25.7012 7.44591 25.8198C7.73085 25.9384 8.03638 25.9996 8.34501 26H20.595C20.6725 26.0003 20.7489 25.9824 20.8183 25.948C20.8877 25.9135 20.9481 25.8633 20.9947 25.8015C21.0413 25.7396 21.0728 25.6677 21.0867 25.5915C21.1007 25.5153 21.0967 25.4369 21.075 25.3625C20.905 24.777 20.685 24 20.685 24C20.685 24 23.66 26.7975 25.155 28.2075C25.2261 28.2748 25.3154 28.3198 25.4118 28.3369C25.5082 28.3539 25.6075 28.3424 25.6974 28.3037C25.7873 28.265 25.8638 28.2007 25.9176 28.1189C25.9714 28.0372 26.0001 27.9414 26 27.8435V8.49701ZM19.34 21.061C19.2896 21.0633 19.2394 21.0538 19.1933 21.0331C19.1473 21.0124 19.1068 20.9812 19.075 20.942L18.72 20.5055C18.6877 20.4657 18.6653 20.4189 18.6545 20.3687C18.6438 20.3186 18.645 20.2667 18.6582 20.2171C18.6714 20.1676 18.6961 20.1219 18.7303 20.0837C18.7645 20.0455 18.8072 20.016 18.855 19.9975C19.5106 19.7677 20.0809 19.344 20.49 18.7825C19.1457 19.6299 17.5891 20.0795 16 20.0795C14.4109 20.0795 12.8543 19.6299 11.51 18.7825C11.9192 19.344 12.4894 19.7677 13.145 19.9975C13.1928 20.016 13.2356 20.0455 13.2698 20.0837C13.304 20.1219 13.3287 20.1676 13.3418 20.2171C13.355 20.2667 13.3563 20.3186 13.3455 20.3687C13.3348 20.4189 13.3123 20.4657 13.28 20.5055L12.925 20.942C12.8933 20.9812 12.8527 21.0124 12.8067 21.0331C12.7607 21.0538 12.7104 21.0633 12.66 21.061C12.0072 21.0559 11.3648 20.8966 10.7852 20.596C10.2056 20.2955 9.70529 19.8622 9.32501 19.3315C9.3621 17.0146 9.92456 14.7364 10.97 12.6685C11.8785 11.9629 12.9773 11.5452 14.125 11.469C14.143 11.4687 14.1607 11.4723 14.1772 11.4795C14.1936 11.4868 14.2082 11.4975 14.22 11.511C14.2337 11.5261 14.2433 11.5444 14.248 11.5643C14.2527 11.5841 14.2523 11.6048 14.2468 11.6244C14.2413 11.6441 14.2309 11.662 14.2166 11.6765C14.2023 11.691 14.1846 11.7017 14.165 11.7075C13.1896 11.9867 12.2811 12.4615 11.495 13.103C12.8758 12.3456 14.4252 11.9485 16 11.9485C17.5749 11.9485 19.1243 12.3456 20.505 13.103C19.7189 12.4615 18.8105 11.9867 17.835 11.7075C17.8155 11.7017 17.7977 11.691 17.7834 11.6765C17.7691 11.662 17.7588 11.6441 17.7533 11.6244C17.7478 11.6048 17.7473 11.5841 17.752 11.5643C17.7567 11.5444 17.7663 11.5261 17.78 11.511C17.7918 11.4975 17.8065 11.4868 17.8229 11.4795C17.8393 11.4723 17.8571 11.4687 17.875 11.469C19.0228 11.5452 20.1215 11.9629 21.03 12.6685C22.0755 14.7364 22.6379 17.0146 22.675 19.3315C22.2947 19.8622 21.7944 20.2955 21.2148 20.596C20.6353 20.8966 19.9929 21.0559 19.34 21.061Z" fill="#1771E5"/>
</g>
<defs>
<clipPath id="clip0_580_1794">
<rect width="32" height="32" fill="white"/>
</clipPath>
</defs>
</svg>
