<svg width="24" height="24" viewBox="0 0 24 24" fill="none" xmlns="http://www.w3.org/2000/svg">
<path d="M12.576 22.8659C18.2666 22.8659 22.8797 18.2528 22.8797 12.5622C22.8797 6.87167 18.2666 2.25854 12.576 2.25854C6.88546 2.25854 2.27234 6.87167 2.27234 12.5622C2.27234 18.2528 6.88546 22.8659 12.576 22.8659Z" fill="url(#paint0_linear_580_856)"/>
<path d="M12.576 22.8659C18.2666 22.8659 22.8797 18.2528 22.8797 12.5622C22.8797 6.87167 18.2666 2.25854 12.576 2.25854C6.88546 2.25854 2.27234 6.87167 2.27234 12.5622C2.27234 18.2528 6.88546 22.8659 12.576 22.8659Z" fill="url(#paint1_linear_580_856)"/>
<path d="M22.018 8.43613C21.3538 6.91863 20.3356 5.59209 19.0664 4.56128L21.3053 8.4322L22.018 8.43613Z" fill="url(#paint2_linear_580_856)"/>
<path d="M22.6515 14.721L21.3052 14.4426L18.9767 18.4686L19.8578 19.8522C21.2392 18.4723 22.2291 16.7017 22.6515 14.721Z" fill="url(#paint3_linear_580_856)"/>
<path d="M9.12268 21.4746L8.86255 22.1737C10.015 22.6193 11.2663 22.8662 12.576 22.8662C13.1149 22.8662 13.644 22.8244 14.1606 22.7447L13.773 21.4746L9.12268 21.4746Z" fill="url(#paint4_linear_580_856)"/>
<path d="M11.4481 21.7412C17.1387 21.7412 21.7518 17.1281 21.7518 11.4375C21.7518 5.74691 17.1387 1.13379 11.4481 1.13379C5.75753 1.13379 1.14441 5.74691 1.14441 11.4375C1.14441 17.1281 5.75753 21.7412 11.4481 21.7412Z" fill="url(#paint5_linear_580_856)"/>
<path d="M10.5386 16.6924L9.12268 21.4746C9.8703 21.6471 10.6479 21.7413 11.4479 21.7413C12.2479 21.7413 13.0254 21.6471 13.773 21.4746L12.357 16.6924H10.5386Z" fill="#EFEFEF"/>
<path d="M12.3571 6.18226L13.773 1.40023C13.0254 1.22774 12.2479 1.13354 11.448 1.13354C10.648 1.13354 9.8704 1.22774 9.1228 1.40026L10.5387 6.18226H12.3571Z" fill="#EFEFEF"/>
<path d="M16.4537 9.59752L21.3052 8.43211C20.8419 6.91055 20.0354 5.53938 18.9767 4.40625L15.5443 8.02234L16.4537 9.59752Z" fill="#EFEFEF"/>
<path d="M6.4422 13.2776L1.59058 14.4426C2.05394 15.9643 2.8604 17.3355 3.91918 18.4687L7.35162 14.8528L6.4422 13.2776Z" fill="#EFEFEF"/>
<path d="M7.35158 8.02239L3.91912 4.40625C2.8604 5.5394 2.05394 6.91055 1.59058 8.43216L6.44216 9.59757L7.35158 8.02239Z" fill="#EFEFEF"/>
<path d="M16.4537 13.2776L15.5443 14.8528L18.9767 18.4686C20.0354 17.3354 20.8419 15.9642 21.3052 14.4426L16.4537 13.2776Z" fill="#EFEFEF"/>
<path d="M11.4481 18.4858C15.3365 18.4858 18.4887 15.3336 18.4887 11.4451C18.4887 7.55673 15.3365 4.40454 11.4481 4.40454C7.55966 4.40454 4.40747 7.55673 4.40747 11.4451C4.40747 15.3336 7.55966 18.4858 11.4481 18.4858Z" fill="url(#paint6_linear_580_856)"/>
<path d="M18.4887 11.4451C18.4887 7.55656 15.3364 4.4043 11.4479 4.4043C7.55939 4.4043 4.4071 7.55656 4.4071 11.4451C4.4071 15.3336 7.55939 18.4859 11.4479 18.4859C7.61962 18.4551 4.4638 15.2746 4.4924 11.4451C4.49361 9.62069 5.24914 7.81827 6.54486 6.54203C7.83155 5.25637 9.63497 4.51952 11.4479 4.53268C15.2628 4.5072 18.4005 7.62942 18.4032 11.4451C18.4168 13.2694 17.6743 15.0834 16.382 16.3792C15.1079 17.6927 13.2947 18.4709 11.4479 18.4859C15.3364 18.4859 18.4887 15.3336 18.4887 11.4451Z" fill="url(#paint7_linear_580_856)"/>
<path opacity="0.5" d="M7.2671 7.001C8.27372 7.001 9.08974 6.18497 9.08974 5.17835C9.08974 4.17174 8.27372 3.35571 7.2671 3.35571C6.26048 3.35571 5.44446 4.17174 5.44446 5.17835C5.44446 6.18497 6.26048 7.001 7.2671 7.001Z" fill="url(#paint8_radial_580_856)"/>
<path d="M7.4284 5.3677L7.62133 6.01059L7.29182 5.42557L6.79632 6.34721L7.07803 5.33945L6.43501 5.53271L7.02003 5.2032L6.09839 4.7077L7.10628 4.98908L6.91289 4.34639L7.24253 4.93108L7.73791 4.00977L7.45619 5.01753L8.09921 4.82427L7.51465 5.15358L8.43583 5.64928L7.4284 5.3677Z" fill="url(#paint9_radial_580_856)"/>
<path d="M11.448 16.5296C14.2561 16.5296 16.5324 14.2532 16.5324 11.4452C16.5324 8.63719 14.2561 6.36084 11.448 6.36084C8.64 6.36084 6.36365 8.63719 6.36365 11.4452C6.36365 14.2532 8.64 16.5296 11.448 16.5296Z" fill="url(#paint10_linear_580_856)"/>
<path d="M7.44754 8.30518C6.87701 9.10658 6.54218 10.0869 6.54218 11.1458C6.54218 13.8546 8.7385 16.0509 11.4473 16.0509C14.1574 16.0509 16.3537 13.8546 16.3537 11.1458C16.3537 10.0869 16.0189 9.10661 15.4484 8.3052C16.1277 9.16947 16.5326 10.261 16.5326 11.4456C16.5326 14.2535 14.2565 16.5296 11.4473 16.5296C8.63938 16.5296 6.36328 14.2535 6.36328 11.4455C6.36328 10.2609 6.76822 9.16944 7.44754 8.30518Z" fill="url(#paint11_linear_580_856)"/>
<path d="M21.7518 11.4374C21.7518 5.74675 17.1386 1.13354 11.448 1.13354C5.75725 1.13354 1.14404 5.74675 1.14404 11.4374C1.14404 17.1281 5.75725 21.7413 11.448 21.7413C5.74831 21.6521 1.25537 16.9604 1.31742 11.4374C1.33608 8.7826 2.41954 6.15873 4.30742 4.29691C6.1788 2.42192 8.80463 1.34423 11.448 1.35968C14.0911 1.34523 16.7169 2.42208 18.5882 4.29719C20.4766 6.15873 21.5587 8.78293 21.5777 11.4374C21.6076 14.0942 20.5368 16.7451 18.6554 18.6449C16.7965 20.5695 14.1485 21.6987 11.448 21.7413C17.1386 21.7413 21.7518 17.1281 21.7518 11.4374Z" fill="url(#paint12_linear_580_856)"/>
<path d="M6.47596 11.4452C6.52268 8.78284 8.75277 6.55486 11.4479 6.5866C14.1588 6.55808 16.3726 8.79804 16.4188 11.4452C16.4502 12.7474 15.9464 14.0679 15.0199 15.0172C14.0956 15.964 12.7847 16.5216 11.4527 16.5295C14.2586 16.5269 16.5325 14.2517 16.5325 11.4452C16.5325 8.63705 14.256 6.3606 11.4479 6.3606C8.63973 6.3606 6.36328 8.63702 6.36328 11.4452C6.36328 14.2516 8.63719 16.5268 11.443 16.5295C10.1111 16.5216 8.80009 15.9641 7.87572 15.0174C6.94858 14.0685 6.44479 12.7476 6.47596 11.4452Z" fill="url(#paint13_linear_580_856)"/>
<path d="M7.97571 16.2859C10.1505 17.4676 13.237 17.4673 15.4112 16.2859C13.6544 18.1097 9.73672 18.1141 7.97571 16.2859Z" fill="url(#paint14_linear_580_856)"/>
<path opacity="0.6" d="M13.2296 18.3734C14.6103 18.3734 15.7296 17.2541 15.7296 15.8734C15.7296 14.4926 14.6103 13.3733 13.2296 13.3733C11.8488 13.3733 10.7295 14.4926 10.7295 15.8734C10.7295 17.2541 11.8488 18.3734 13.2296 18.3734Z" fill="url(#paint15_radial_580_856)"/>
<defs>
<linearGradient id="paint0_linear_580_856" x1="2.27189" y1="12.5622" x2="22.8797" y2="12.5622" gradientUnits="userSpaceOnUse">
<stop stop-color="#FF7C00"/>
<stop offset="0.341442" stop-color="#F85C03"/>
<stop offset="0.64054" stop-color="#FF7C00"/>
<stop offset="1" stop-color="#F85A03"/>
</linearGradient>
<linearGradient id="paint1_linear_580_856" x1="2.27189" y1="12.5622" x2="22.8797" y2="12.5622" gradientUnits="userSpaceOnUse">
<stop stop-color="#F7CE52"/>
<stop offset="0.832433" stop-color="#BFA249"/>
</linearGradient>
<linearGradient id="paint2_linear_580_856" x1="20.0962" y1="6.79607" x2="20.8715" y2="6.27894" gradientUnits="userSpaceOnUse">
<stop stop-color="#EFEFEF"/>
<stop offset="1" stop-color="#96A1B2"/>
</linearGradient>
<linearGradient id="paint3_linear_580_856" x1="21.7182" y1="17.7499" x2="19.4627" y2="15.4948" gradientUnits="userSpaceOnUse">
<stop stop-color="#EFEFEF"/>
<stop offset="1" stop-color="#96A1B2"/>
</linearGradient>
<linearGradient id="paint4_linear_580_856" x1="11.5114" y1="22.7858" x2="11.5114" y2="21.1547" gradientUnits="userSpaceOnUse">
<stop stop-color="#EFEFEF"/>
<stop offset="1" stop-color="#96A1B2"/>
</linearGradient>
<linearGradient id="paint5_linear_580_856" x1="11.4481" y1="1.13379" x2="11.4481" y2="21.7412" gradientUnits="userSpaceOnUse">
<stop stop-color="#F7CE52"/>
<stop offset="0.832433" stop-color="#FFC71C"/>
</linearGradient>
<linearGradient id="paint6_linear_580_856" x1="11.4481" y1="19.3389" x2="11.4481" y2="6.1973" gradientUnits="userSpaceOnUse">
<stop stop-color="#F7CE52"/>
<stop offset="0.832433" stop-color="#ECB40D"/>
</linearGradient>
<linearGradient id="paint7_linear_580_856" x1="4.407" y1="11.4452" x2="18.4887" y2="11.4452" gradientUnits="userSpaceOnUse">
<stop stop-color="white" stop-opacity="0"/>
<stop offset="0.442342" stop-color="white"/>
<stop offset="0.640541" stop-color="white" stop-opacity="0.999"/>
<stop offset="1" stop-color="white" stop-opacity="0"/>
</linearGradient>
<radialGradient id="paint8_radial_580_856" cx="0" cy="0" r="1" gradientUnits="userSpaceOnUse" gradientTransform="translate(7.26173 5.15967) rotate(21.9503) scale(1.82406)">
<stop offset="0.306306" stop-color="white" stop-opacity="0.999"/>
<stop offset="1" stop-color="white" stop-opacity="0"/>
</radialGradient>
<radialGradient id="paint9_radial_580_856" cx="0" cy="0" r="1" gradientUnits="userSpaceOnUse" gradientTransform="translate(7.26179 5.15966) rotate(21.9503) scale(1.26044)">
<stop offset="0.306306" stop-color="white"/>
<stop offset="1" stop-color="white" stop-opacity="0"/>
</radialGradient>
<linearGradient id="paint10_linear_580_856" x1="11.448" y1="14.6947" x2="11.448" y2="4.20175" gradientUnits="userSpaceOnUse">
<stop stop-color="#EFEFEF"/>
<stop offset="1" stop-color="#96A1B2"/>
</linearGradient>
<linearGradient id="paint11_linear_580_856" x1="11.4481" y1="11.7024" x2="11.4481" y2="18.1565" gradientUnits="userSpaceOnUse">
<stop stop-color="#96A1B2"/>
<stop offset="0.179531" stop-color="#9DA7B7"/>
<stop offset="0.433919" stop-color="#AFB7C3"/>
<stop offset="0.731376" stop-color="#CDD2D8"/>
<stop offset="1" stop-color="#EFEFEF"/>
</linearGradient>
<linearGradient id="paint12_linear_580_856" x1="1.14391" y1="11.4375" x2="21.7518" y2="11.4375" gradientUnits="userSpaceOnUse">
<stop stop-color="white" stop-opacity="0"/>
<stop offset="0.442342" stop-color="white"/>
<stop offset="0.640541" stop-color="white" stop-opacity="0.999"/>
<stop offset="1" stop-color="white" stop-opacity="0"/>
</linearGradient>
<linearGradient id="paint13_linear_580_856" x1="6.3632" y1="11.4452" x2="16.5324" y2="11.4452" gradientUnits="userSpaceOnUse">
<stop stop-color="white" stop-opacity="0"/>
<stop offset="0.442342" stop-color="white"/>
<stop offset="0.640541" stop-color="white" stop-opacity="0.999"/>
<stop offset="1" stop-color="white" stop-opacity="0"/>
</linearGradient>
<linearGradient id="paint14_linear_580_856" x1="15.4113" y1="16.9706" x2="7.9758" y2="16.9706" gradientUnits="userSpaceOnUse">
<stop stop-color="white" stop-opacity="0"/>
<stop offset="0.323423" stop-color="white"/>
<stop offset="0.687387" stop-color="white" stop-opacity="0.999"/>
<stop offset="1" stop-color="white" stop-opacity="0"/>
</linearGradient>
<radialGradient id="paint15_radial_580_856" cx="0" cy="0" r="1" gradientUnits="userSpaceOnUse" gradientTransform="translate(13.2296 15.8734) rotate(180) scale(2.50008 2.50007)">
<stop offset="0.306306" stop-color="white" stop-opacity="0.999"/>
<stop offset="1" stop-color="white" stop-opacity="0"/>
</radialGradient>
</defs>
</svg>
