<svg width="20" height="20" viewBox="0 0 20 20" fill="none" xmlns="http://www.w3.org/2000/svg">
<g clip-path="url(#clip0_580_836)">
<path d="M9.99996 5.94175L10.8083 7.85008L11.2 8.77508L12.2 8.85841L14.2583 9.03341L12.6916 10.3917L11.9333 11.0501L12.1583 12.0334L12.625 14.0417L10.8583 12.9751L9.99996 12.4417L9.14163 12.9584L7.37496 14.0251L7.84163 12.0167L8.06663 11.0334L7.30829 10.3751L5.74163 9.01675L7.79996 8.84175L8.79996 8.75841L9.19163 7.83341L9.99996 5.94175ZM9.99996 1.66675L7.65829 7.19175L1.66663 7.70008L6.21663 11.6417L4.84996 17.5001L9.99996 14.3917L15.15 17.5001L13.7833 11.6417L18.3333 7.70008L12.3416 7.19175L9.99996 1.66675Z" fill="#999999"/>
</g>
<defs>
<clipPath id="clip0_580_836">
<rect width="20" height="20" fill="white"/>
</clipPath>
</defs>
</svg>
