<svg width="32" height="32" viewBox="0 0 32 32" fill="none" xmlns="http://www.w3.org/2000/svg">
<g clip-path="url(#clip0_580_1573)">
<path fill-rule="evenodd" clip-rule="evenodd" d="M24 32H8C5.8783 31.9999 3.84352 31.157 2.34325 29.6568C0.842977 28.1565 9.28184e-05 26.1217 0 24L0 8C9.28184e-05 5.8783 0.842977 3.84352 2.34325 2.34325C3.84352 0.842977 5.8783 9.28184e-05 8 0L24 0C26.1217 0 28.1566 0.842855 29.6569 2.34315C31.1571 3.84344 32 5.87827 32 8V24C32 26.1217 31.1571 28.1566 29.6569 29.6569C28.1566 31.1571 26.1217 32 24 32Z" fill="#E5ECF7"/>
<path fill-rule="evenodd" clip-rule="evenodd" d="M15 9H24C25.1536 8.99993 26.2632 8.55683 27.0995 7.7622C27.9359 6.96758 28.4351 5.88213 28.4941 4.73C28.5532 3.57788 28.1675 2.44708 27.4168 1.57113C26.666 0.695185 25.6076 0.140991 24.46 0.023C24.307 0.0145 24.1555 0 24 0H8C5.8783 9.28184e-05 3.84352 0.842977 2.34325 2.34325C0.842977 3.84352 9.28184e-05 5.8783 0 8L0 24C9.28219e-05 20.0218 1.58048 16.2065 4.3935 13.3935C7.20653 10.5805 11.0218 9.00009 15 9Z" fill="#E5ECF7"/>
<path fill-rule="evenodd" clip-rule="evenodd" d="M24 16C22.4177 16 20.871 16.4692 19.5554 17.3482C18.2398 18.2273 17.2145 19.4767 16.609 20.9385C16.0035 22.4003 15.845 24.0089 16.1537 25.5607C16.4624 27.1126 17.2243 28.538 18.3431 29.6569C19.462 30.7757 20.8874 31.5376 22.4393 31.8463C23.9911 32.155 25.5997 31.9965 27.0615 31.391C28.5233 30.7855 29.7727 29.7602 30.6517 28.4446C31.5308 27.129 32 25.5823 32 24V8C32 10.1217 31.1571 12.1566 29.6568 13.6569C28.1566 15.1571 26.1217 16 24 16Z" fill="#E5ECF7"/>
<path fill-rule="evenodd" clip-rule="evenodd" d="M21.6715 19.5L24.5 16.6716V7.5H11.5V19.5H15.5V22.5L18.5 19.5H21.6715ZM20.086 23.9142C19.7108 24.2892 19.202 24.4999 18.6715 24.5H15.5C15.5 24.5 13.5285 26.4716 12.3535 27.6465C12.2836 27.7164 12.1945 27.764 12.0975 27.7832C12.0005 27.8025 11.9 27.7926 11.8087 27.7548C11.7173 27.7169 11.6392 27.6529 11.5843 27.5706C11.5293 27.4884 11.5 27.3918 11.5 27.2929V24.5H7.5C7.23478 24.5 6.98043 24.3946 6.79289 24.2071C6.60536 24.0196 6.5 23.7652 6.5 23.5V10.3285C6.49994 10.0658 6.55167 9.80566 6.65222 9.56299C6.75277 9.32032 6.90017 9.09985 7.086 8.9142C7.8435 8.15635 9.1565 6.84365 9.914 6.0858C10.2892 5.71076 10.798 5.50006 11.3285 5.5H25.5C25.7652 5.5 26.0196 5.60536 26.2071 5.79289C26.3946 5.98043 26.5 6.23478 26.5 6.5V17.0858C26.4999 17.351 26.3945 17.6054 26.207 17.7929C25.1495 18.8503 21.5165 22.4833 20.086 23.9142Z" fill="#1771E5"/>
<path d="M16 10H18V15H16V10Z" fill="#1771E5"/>
<path d="M20.5 10H22.5V15H20.5V10Z" fill="#1771E5"/>
</g>
<defs>
<clipPath id="clip0_580_1573">
<rect width="32" height="32" fill="white"/>
</clipPath>
</defs>
</svg>
