<svg width="32" height="32" viewBox="0 0 32 32" fill="none" xmlns="http://www.w3.org/2000/svg">
<g clip-path="url(#clip0_580_1788)">
<path fill-rule="evenodd" clip-rule="evenodd" d="M24 32H8C5.8783 31.9999 3.84352 31.157 2.34325 29.6568C0.842977 28.1565 9.28184e-05 26.1217 0 24L0 8C9.28184e-05 5.8783 0.842977 3.84352 2.34325 2.34325C3.84352 0.842977 5.8783 9.28184e-05 8 0L24 0C26.1217 0 28.1566 0.842855 29.6569 2.34315C31.1571 3.84344 32 5.87827 32 8V24C32 26.1217 31.1571 28.1566 29.6569 29.6569C28.1566 31.1571 26.1217 32 24 32Z" fill="#E5ECF7"/>
<path fill-rule="evenodd" clip-rule="evenodd" d="M15 9H24C25.1536 8.99993 26.2632 8.55683 27.0995 7.7622C27.9359 6.96758 28.4351 5.88213 28.4941 4.73C28.5532 3.57788 28.1675 2.44708 27.4168 1.57113C26.666 0.695185 25.6076 0.140991 24.46 0.023C24.307 0.0145 24.1555 0 24 0H8C5.8783 9.28184e-05 3.84352 0.842977 2.34325 2.34325C0.842977 3.84352 9.28184e-05 5.8783 0 8L0 24C9.28219e-05 20.0218 1.58048 16.2065 4.3935 13.3935C7.20653 10.5805 11.0218 9.00009 15 9Z" fill="#E5ECF7"/>
<path fill-rule="evenodd" clip-rule="evenodd" d="M24 16C22.4177 16 20.871 16.4692 19.5554 17.3482C18.2398 18.2273 17.2145 19.4767 16.609 20.9385C16.0035 22.4003 15.845 24.0089 16.1537 25.5607C16.4624 27.1126 17.2243 28.538 18.3431 29.6569C19.462 30.7757 20.8874 31.5376 22.4393 31.8463C23.9911 32.155 25.5997 31.9965 27.0615 31.391C28.5233 30.7855 29.7727 29.7602 30.6517 28.4446C31.5308 27.129 32 25.5823 32 24V8C32 10.1217 31.1571 12.1566 29.6568 13.6569C28.1566 15.1571 26.1217 16 24 16Z" fill="#E5ECF7"/>
<path fill-rule="evenodd" clip-rule="evenodd" d="M22.54 8.51599C22.7858 8.41451 23.0542 8.38019 23.3176 8.41656C23.581 8.45293 23.83 8.55867 24.0391 8.72295C24.2483 8.88723 24.4099 9.10415 24.5076 9.35148C24.6053 9.59881 24.6355 9.86766 24.595 10.1305C24.0123 13.92 22.944 20.864 22.3769 24.55C22.3377 24.8051 22.2333 25.0457 22.0739 25.2486C21.9144 25.4515 21.7054 25.6099 21.4668 25.7084C21.2283 25.8069 20.9684 25.8421 20.7122 25.8108C20.4561 25.7795 20.2123 25.6826 20.0046 25.5295C17.9985 24.0515 14.9908 21.8355 13.4637 20.71C13.3459 20.6231 13.2485 20.5115 13.1786 20.3829C13.1086 20.2543 13.0677 20.1119 13.0588 19.9658C13.0499 19.8197 13.0732 19.6734 13.127 19.5373C13.1809 19.4012 13.2639 19.2785 13.3703 19.178C14.7696 17.8565 17.5565 15.2245 19.4739 13.4135C19.5191 13.3706 19.5466 13.3123 19.5511 13.2502C19.5555 13.188 19.5366 13.1265 19.498 13.0775C19.4595 13.0286 19.404 12.9958 19.3425 12.9856C19.2811 12.9755 19.218 12.9886 19.1657 13.0225C16.7072 14.626 12.9419 17.0815 11.0965 18.285C10.7506 18.5105 10.3619 18.6623 9.95476 18.7307C9.54756 18.7991 9.13064 18.7827 8.73008 18.6825C7.71393 18.4285 6.24823 18.062 4.94387 17.736C4.73966 17.685 4.55676 17.5708 4.42121 17.4098C4.28567 17.2487 4.20439 17.049 4.18897 16.8391C4.17354 16.6292 4.22476 16.4197 4.33531 16.2406C4.44586 16.0615 4.61011 15.9218 4.80467 15.8415C9.34528 13.966 18.2312 10.296 22.54 8.51599Z" fill="#1771E5"/>
</g>
<defs>
<clipPath id="clip0_580_1788">
<rect width="32" height="32" fill="white"/>
</clipPath>
</defs>
</svg>
