<svg width="32" height="32" viewBox="0 0 32 32" fill="none" xmlns="http://www.w3.org/2000/svg">
<g clip-path="url(#clip0_580_1587)">
<path fill-rule="evenodd" clip-rule="evenodd" d="M24 32H8C5.8783 31.9999 3.84352 31.157 2.34325 29.6568C0.842977 28.1565 9.28184e-05 26.1217 0 24L0 8C9.28184e-05 5.8783 0.842977 3.84352 2.34325 2.34325C3.84352 0.842977 5.8783 9.28184e-05 8 0L24 0C26.1217 0 28.1566 0.842855 29.6569 2.34315C31.1571 3.84344 32 5.87827 32 8V24C32 26.1217 31.1571 28.1566 29.6569 29.6569C28.1566 31.1571 26.1217 32 24 32Z" fill="#E5ECF7"/>
<path fill-rule="evenodd" clip-rule="evenodd" d="M15 9H24C25.1536 8.99993 26.2632 8.55683 27.0995 7.7622C27.9359 6.96758 28.4351 5.88213 28.4941 4.73C28.5532 3.57788 28.1675 2.44708 27.4168 1.57113C26.666 0.695185 25.6076 0.140991 24.46 0.023C24.307 0.0145 24.1555 0 24 0H8C5.8783 9.28184e-05 3.84352 0.842977 2.34325 2.34325C0.842977 3.84352 9.28184e-05 5.8783 0 8L0 24C9.28219e-05 20.0218 1.58048 16.2065 4.3935 13.3935C7.20653 10.5805 11.0218 9.00009 15 9Z" fill="#E5ECF7"/>
<path fill-rule="evenodd" clip-rule="evenodd" d="M24 16C22.4177 16 20.871 16.4692 19.5554 17.3482C18.2398 18.2273 17.2145 19.4767 16.609 20.9385C16.0035 22.4003 15.845 24.0089 16.1537 25.5607C16.4624 27.1126 17.2243 28.538 18.3431 29.6569C19.462 30.7757 20.8874 31.5376 22.4393 31.8463C23.9911 32.155 25.5997 31.9965 27.0615 31.391C28.5233 30.7855 29.7727 29.7602 30.6517 28.4446C31.5308 27.129 32 25.5823 32 24V8C32 10.1217 31.1571 12.1566 29.6568 13.6569C28.1566 15.1571 26.1217 16 24 16Z" fill="#E5ECF7"/>
<path fill-rule="evenodd" clip-rule="evenodd" d="M26.559 10.9022C26.721 10.3932 26.559 10.0237 25.8415 10.0237H23.459C23.237 10.0113 23.0168 10.0696 22.8299 10.19C22.643 10.3104 22.499 10.4869 22.4185 10.6942C21.6734 12.4511 20.6842 14.0941 19.48 15.5747C18.925 16.1297 18.671 16.3152 18.37 16.3152C18.208 16.3152 18 16.1297 18 15.6207V10.8792C18 10.2777 17.8145 10.0002 17.306 10.0002H13.653C13.5769 9.99651 13.5009 10.008 13.4293 10.034C13.3577 10.06 13.292 10.1 13.236 10.1517C13.18 10.2033 13.1349 10.2656 13.1032 10.3349C13.0715 10.4042 13.054 10.479 13.0515 10.5552C13.0515 11.1337 13.9075 11.2722 14 12.8917V16.4072C14 17.1707 13.861 17.3097 13.5605 17.3097C12.7505 17.3097 10.459 14.3257 9.279 10.9252C9.0475 10.2542 8.817 10.0002 8.215 10.0002H5.8095C5.1155 10.0002 5 10.3237 5 10.6707C5 12.1987 9.319 22.9767 16.2885 22.9767C17.8145 22.9767 18 22.6302 18 22.0517V19.9007C18 19.2062 18.139 19.0907 18.6245 19.0907C19.865 19.0907 22.11 21.8617 22.69 22.4422C22.8239 22.6112 22.9932 22.7487 23.186 22.8451C23.3789 22.9415 23.5905 22.9945 23.806 23.0002H26.1885C26.8825 23.0002 27.124 22.5787 26.9395 21.9082C26.5105 20.5282 23.526 17.6892 23.367 17.4717C23.0195 17.0087 23.112 16.8242 23.367 16.4072C23.3435 16.4072 26.258 12.2902 26.559 10.9022Z" fill="#1771E5"/>
</g>
<defs>
<clipPath id="clip0_580_1587">
<rect width="32" height="32" fill="white"/>
</clipPath>
</defs>
</svg>
