<svg width="32" height="32" viewBox="0 0 32 32" fill="none" xmlns="http://www.w3.org/2000/svg">
<g clip-path="url(#clip0_580_1581)">
<path fill-rule="evenodd" clip-rule="evenodd" d="M24 32H8C5.8783 31.9999 3.84352 31.157 2.34325 29.6568C0.842977 28.1565 9.28184e-05 26.1217 0 24L0 8C9.28184e-05 5.8783 0.842977 3.84352 2.34325 2.34325C3.84352 0.842977 5.8783 9.28184e-05 8 0L24 0C26.1217 0 28.1566 0.842855 29.6569 2.34315C31.1571 3.84344 32 5.87827 32 8V24C32 26.1217 31.1571 28.1566 29.6569 29.6569C28.1566 31.1571 26.1217 32 24 32Z" fill="#E5ECF7"/>
<path fill-rule="evenodd" clip-rule="evenodd" d="M15 9H24C25.1536 8.99993 26.2632 8.55683 27.0995 7.7622C27.9359 6.96758 28.4351 5.88213 28.4941 4.73C28.5532 3.57788 28.1675 2.44708 27.4168 1.57113C26.666 0.695185 25.6076 0.140991 24.46 0.023C24.307 0.0145 24.1555 0 24 0H8C5.8783 9.28184e-05 3.84352 0.842977 2.34325 2.34325C0.842977 3.84352 9.28184e-05 5.8783 0 8L0 24C9.28219e-05 20.0218 1.58048 16.2065 4.3935 13.3935C7.20653 10.5805 11.0218 9.00009 15 9Z" fill="#E5ECF7"/>
<path fill-rule="evenodd" clip-rule="evenodd" d="M24 16C22.4177 16 20.871 16.4692 19.5554 17.3482C18.2398 18.2273 17.2145 19.4767 16.609 20.9385C16.0035 22.4003 15.845 24.0089 16.1537 25.5607C16.4624 27.1126 17.2243 28.538 18.3431 29.6569C19.462 30.7757 20.8874 31.5376 22.4393 31.8463C23.9911 32.155 25.5997 31.9965 27.0615 31.391C28.5233 30.7855 29.7727 29.7602 30.6517 28.4446C31.5308 27.129 32 25.5823 32 24V8C32 10.1217 31.1571 12.1566 29.6568 13.6569C28.1566 15.1571 26.1217 16 24 16Z" fill="#E5ECF7"/>
<path fill-rule="evenodd" clip-rule="evenodd" d="M12.524 8.93807C12.3725 8.84476 12.1989 8.79356 12.021 8.78978C11.8431 8.78599 11.6674 8.82975 11.5121 8.91653C11.3568 9.00332 11.2274 9.12998 11.1374 9.28346C11.0474 9.43693 10.9999 9.61164 11 9.78957V22.2106C10.9999 22.3885 11.0474 22.5632 11.1374 22.7167C11.2274 22.8702 11.3568 22.9968 11.5121 23.0836C11.6674 23.1704 11.8431 23.2141 12.021 23.2104C12.1989 23.2066 12.3725 23.1554 12.524 23.0621C15.0735 21.4936 20.1635 18.3611 22.616 16.8516C22.7615 16.7621 22.8816 16.6369 22.9649 16.4878C23.0483 16.3388 23.092 16.1708 23.092 16.0001C23.092 15.8293 23.0483 15.6614 22.9649 15.5123C22.8816 15.3632 22.7615 15.238 22.616 15.1486C20.1635 13.6391 15.0735 10.5066 12.524 8.93807Z" fill="#1771E5"/>
</g>
<defs>
<clipPath id="clip0_580_1581">
<rect width="32" height="32" fill="white"/>
</clipPath>
</defs>
</svg>
