<svg width="150" height="50" viewBox="0 0 150 50" fill="none" xmlns="http://www.w3.org/2000/svg">
<g clip-path="url(#clip0_580_1772)">
<path d="M5.15865 32.2356C5.02885 28.7788 4.95673 25.0481 4.95192 21.1394C8.92308 21.1394 12.7067 21.2163 16.2019 21.3606H16.5865V16.9423H16.2019C12.9183 17.1298 9.13461 17.2308 4.95192 17.2356C4.95192 13.3125 4.90385 10.101 4.81731 7.6875C9.69711 7.6875 14.3798 7.78365 18.7596 7.98077H19.1202L19.3606 3.57211H0V3.96154C0.230769 8.28846 0.346154 13.3846 0.346154 19.1106C0.365385 25.2356 0.25 30.8798 0 35.9231V36.3077H20.5288L20.7019 31.8461L20.3029 31.8702C15.5288 32.101 10.4375 32.2115 5.15865 32.2356Z" fill="black"/>
<path d="M37.1202 23.3462C38.0817 22.3366 39.6779 20.4087 41.8125 17.6202C45.1923 13.1635 45.1923 12.8366 45.1923 12.6202V12.2548H39.8077V12.6202C39.8077 12.7837 39.625 13.4712 37.9327 16.3606C37.0565 17.9118 36.0817 19.4052 35.0144 20.8317C34.1683 19.726 33.125 18.1731 31.9087 16.2067C30.1298 13.3221 29.9856 12.7356 29.9856 12.6202V12.2548H24.0048V12.6202C24.0048 12.8462 24.0048 13.1875 27.3221 17.5433C29.3894 20.2644 30.9856 22.2548 32.0625 23.4664C30.0973 25.6566 28.244 27.9448 26.5096 30.3221C22.9231 35.0962 22.9231 35.6731 22.9231 35.9423V36.3077H28.5962V35.9423C28.5962 35.75 28.8077 34.9375 30.7596 31.5481C32.1058 29.2067 33.1971 27.4375 34.0048 26.2933C35.1442 27.8414 36.4664 29.7548 37.9471 31.9664C40.0625 35.1587 40.2356 35.8125 40.2404 35.9375V36.3029H46.3029V35.9375C46.3029 35.6971 46.3029 35.25 42.6827 30.4135C40.3846 27.3366 38.5 24.9567 37.1202 23.3462Z" fill="black"/>
<path d="M68.6587 27.9846C68.6587 27.326 68.6923 25.975 68.7692 23.9606C68.8414 21.9413 68.8798 20.5327 68.8798 19.7635C68.8798 16.7587 68.0289 14.5904 66.351 13.3212C64.6731 12.0519 62.3606 11.4413 59.3798 11.4413C56.4873 11.3958 53.6024 11.7518 50.8077 12.499L50.5721 12.5663L50.0625 16.7298L50.5817 16.5952C53.0313 15.9605 55.5512 15.6374 58.0817 15.6337C59.6993 15.5248 61.3161 15.8571 62.7596 16.5952C63.7644 17.2346 64.2019 18.4413 64.2019 20.3067C64.2096 20.6373 64.1967 20.9681 64.1635 21.2971C58.4327 21.4077 54.5914 22.2202 52.4231 23.7779C51.3728 24.4733 50.5141 25.4215 49.926 26.5355C49.338 27.6494 49.0394 28.8934 49.0577 30.1529C49.0057 31.0993 49.1751 32.0449 49.5523 32.9145C49.9295 33.7841 50.5042 34.5538 51.2308 35.1625C52.672 36.3238 54.4764 36.9401 56.3269 36.9029C59.2495 37.0437 62.1271 36.1424 64.4471 34.3596C64.4909 34.9659 64.5857 35.5674 64.7308 36.1577L64.8029 36.4462L69.3846 36.2731L69.3029 35.8548C68.8474 33.2567 68.6317 30.6222 68.6587 27.9846ZM57.5625 25.5183C59.7113 25.0182 61.9147 24.7921 64.1202 24.8452C64.1202 26.6865 64.1635 28.7587 64.2356 31.0087C62.4803 32.2864 60.3418 32.9274 58.1731 32.826C55.25 32.826 53.8462 31.8644 53.8462 29.8548C53.8029 27.7067 55.0385 26.2885 57.5625 25.5192V25.5183Z" fill="black"/>
<path d="M90.4134 36.3077H95.6731V35.9375C95.6106 30.5673 95.5769 26.4567 95.5769 23.7164C95.5769 23.4087 95.5769 22.7548 95.625 21.8894C95.6586 20.9567 95.6731 20.351 95.6731 20.0337C95.6731 16.8558 94.875 14.601 93.3029 13.3029C91.7308 12.0048 89.5529 11.4183 86.7644 11.4183C83.9062 11.4617 81.1655 12.5631 79.0721 14.5096L78.6298 11.6635L73.5577 12.4087L73.6346 12.7933C74.3532 16.4352 74.7123 20.1389 74.7067 23.851C74.7067 26.3173 74.5673 30.375 74.2884 35.9087V36.2933H79.5192V35.9183C79.4567 29.5433 79.4231 23.5048 79.4231 17.976C81.0966 16.4963 83.247 15.6685 85.4808 15.6442C86.9723 15.5424 88.4477 16.0039 89.6154 16.9375C90.5625 17.7981 91.0288 19.4327 91.0288 21.8317C91.0288 26.8846 90.851 31.6154 90.4904 35.8942L90.4134 36.3077Z" fill="black"/>
<path d="M42.0721 46.5C41.9038 44.5337 41.8173 43.1346 41.8173 42.3798V42.1779H39.9904V42.3798C39.8013 43.4034 39.478 44.3975 39.0289 45.3365C38.5962 46.4038 38.3462 47.0865 38.2019 47.5385C38.0769 47.0913 37.8558 46.4087 37.4712 45.351C37.0566 44.401 36.7626 43.4028 36.5962 42.3798V42.1779H34.7212V42.3798C34.6697 43.7621 34.5445 45.1407 34.3462 46.5096C33.9615 49.5096 33.9615 49.5529 33.9615 49.5865V49.7885H35.3173V49.5865C35.3173 48.9231 35.3846 47.8173 35.5192 46.2981C35.5914 45.476 35.6442 44.8077 35.6827 44.2788C35.8221 44.7596 36.1635 45.7212 36.6875 47.1346C37.0356 47.9162 37.2967 48.7336 37.4664 49.5721V49.774H38.625V49.5721C38.8128 48.7426 39.0917 47.9364 39.4567 47.1683C39.883 46.1074 40.2564 45.0994 40.5769 44.1442C40.6106 44.625 40.6538 45.2356 40.7115 46.0048C40.8221 47.5433 40.8798 48.7452 40.8798 49.5577V49.7596H42.3221V49.5577C42.3077 49.5529 42.3077 49.4808 42.0721 46.5Z" fill="#999999"/>
<path d="M53.9086 43.375H54.125L54.0865 42.1731H42.7884L42.7452 43.375H42.9663C43.8317 43.3317 44.5336 43.3125 45.0625 43.3077V45.7981C45.0625 47.0577 45.0625 48.3221 45 49.5721V49.7837H46.4423V49.5769C46.4038 48.2692 46.3846 46.9952 46.3846 45.7981V43.3077H50.4808V45.7981C50.4808 46.9952 50.4808 48.2692 50.4279 49.5769V49.7837H51.8702V49.5721C51.8269 48.3221 51.8029 47.0577 51.8029 45.7981C51.8029 44.8366 51.8029 43.9904 51.8317 43.3077C52.3365 43.3077 53.0384 43.3317 53.9086 43.375Z" fill="#999999"/>
<path d="M65.9952 46.2212C65.9952 45.1346 65.9952 43.851 66.0625 42.4038V42.1971H64.6202V42.4038C64.6634 43.476 64.6827 44.726 64.6827 46.1154V48.6298H62.5048V46.024C62.5048 44.6442 62.5048 43.4231 62.5577 42.4038V42.1971H61.1154V42.4038C61.1538 43.476 61.1731 44.726 61.1731 46.1154V48.6298H58.9759V46.024C58.9759 44.6442 58.9759 43.4279 59.0384 42.4038V42.1971H57.5961V42.4038C57.6394 43.8462 57.6586 45.1154 57.6586 46.2212C57.6586 47.3269 57.6586 48.4087 57.5961 49.5865V49.7981H66.0288V49.5865C66.0192 48.375 65.9952 47.2452 65.9952 46.2212Z" fill="#999999"/>
<path d="M73.2164 48.8558C72.9769 48.0324 72.6378 47.2413 72.2068 46.5C71.9854 46.2025 71.695 45.9632 71.3606 45.8029C71.6857 45.5892 71.9652 45.313 72.1827 44.9904C72.5441 44.3932 72.8132 43.7449 72.9808 43.0673C73.0769 42.7788 73.1394 42.5865 73.1779 42.4808L73.2885 42.2067H71.9423L71.8846 42.2884C71.784 42.4391 71.7168 42.6096 71.6875 42.7884C71.6063 43.5326 71.3145 44.2381 70.8462 44.8221C70.6608 45.0062 70.4399 45.1506 70.1969 45.2465C69.9539 45.3424 69.6938 45.3877 69.4327 45.3798H69.125C69.125 44.4183 69.125 43.4567 69.1779 42.4086V42.2019H67.7356V42.4134C67.7885 43.375 67.8125 44.524 67.8125 45.8125C67.8125 47.1779 67.7885 48.4471 67.7356 49.5769V49.7884H69.1779V49.5769C69.1442 48.6442 69.125 47.6058 69.125 46.5H69.4327C69.6933 46.4762 69.956 46.5066 70.2042 46.5893C70.4525 46.6721 70.6809 46.8053 70.875 46.9808C71.3316 47.644 71.6384 48.3986 71.7741 49.1923C71.8229 49.3556 71.8807 49.5161 71.9471 49.6731L72 49.7884H73.5625L73.4664 49.5192L73.2164 48.8558Z" fill="#999999"/>
<path d="M77.6865 42.0529C77.2073 42.0541 76.7335 42.1538 76.2943 42.3456C75.8552 42.5375 75.4602 42.8175 75.1337 43.1683C74.7622 43.5674 74.4739 44.0366 74.2857 44.5484C74.0975 45.0602 74.0131 45.6043 74.0375 46.1491C74.0136 46.6607 74.0942 47.1718 74.2744 47.6512C74.4546 48.1306 74.7306 48.5683 75.0856 48.9375C75.4026 49.2664 75.7828 49.5278 76.2033 49.7063C76.6237 49.8847 77.0759 49.9764 77.5327 49.976C78.0132 49.9743 78.4881 49.8731 78.9275 49.6786C79.3669 49.4842 79.7613 49.2007 80.0856 48.8462C80.4587 48.4459 80.7482 47.9753 80.9372 47.4619C81.1263 46.9484 81.211 46.4024 81.1865 45.8558C81.2105 45.3442 81.1299 44.833 80.9497 44.3536C80.7695 43.8742 80.4935 43.4365 80.1385 43.0673C79.8199 42.7409 79.4382 42.4826 79.0167 42.3083C78.5952 42.1339 78.1426 42.047 77.6865 42.0529ZM77.6865 48.8269C77.3875 48.8244 77.0923 48.7594 76.8199 48.636C76.5475 48.5127 76.3039 48.3337 76.1048 48.1106C75.6096 47.5381 75.3592 46.7939 75.4077 46.0385C75.3716 45.2926 75.6054 44.5587 76.0663 43.9712C76.2358 43.7467 76.4532 43.5629 76.7027 43.4331C76.9523 43.3034 77.2276 43.2309 77.5087 43.2212C77.8076 43.2225 78.1029 43.2876 78.3748 43.4119C78.6467 43.5362 78.889 43.7171 79.0856 43.9423C79.5888 44.5079 79.8496 45.2487 79.8115 46.0048C79.8457 46.7482 79.6139 47.4794 79.1577 48.0673C78.9873 48.2984 78.7659 48.4871 78.5108 48.6188C78.2556 48.7505 77.9736 48.8217 77.6865 48.8269Z" fill="#999999"/>
<path d="M87.6346 42.1971H84.2692L84.2452 42.3654C84.2067 42.6058 84.149 42.8798 84.0769 43.1779C84.0048 43.476 83.9038 43.7981 83.7933 44.1394C83.6827 44.4808 83.5625 44.8125 83.4279 45.149C83.2932 45.4856 83.1538 45.8269 83.0096 46.149C82.8654 46.4712 82.7211 46.7788 82.5721 47.0625C82.4231 47.3462 82.2788 47.5962 82.1394 47.8077C82.0253 47.9893 81.8967 48.1613 81.7548 48.3221C81.6202 48.4663 81.5481 48.4952 81.5192 48.5L81.351 48.5385L81.4279 49.9039H81.6346C81.8892 49.8749 82.1289 49.7692 82.3221 49.601C82.5522 49.4073 82.7559 49.1842 82.9279 48.9375C83.1375 48.6479 83.3271 48.3443 83.4952 48.0288C83.6731 47.6923 83.8461 47.3365 84.0096 46.9712C84.1731 46.6058 84.3269 46.2308 84.4663 45.851C84.6058 45.4712 84.726 45.1202 84.8365 44.7788C84.9471 44.4375 85.0384 44.1298 85.1154 43.8462C85.1683 43.649 85.2115 43.4712 85.2404 43.3221H86.2404V45.9856C86.2404 47.3606 86.2404 48.5817 86.1827 49.601V49.8125H87.625V49.601C87.5817 48.4135 87.5577 47.1298 87.5577 45.7933C87.5577 44.726 87.5817 43.5962 87.625 42.4279L87.6346 42.1971Z" fill="#999999"/>
<path d="M94.1971 45.9231C93.6551 44.7846 93.2049 43.6045 92.851 42.3942V42.1971H91.1731V42.3894C90.8004 43.6177 90.3294 44.8138 89.7645 45.9663C88.3221 49.3317 88.3221 49.4856 88.3221 49.5769V49.7788H89.8414V49.5769C89.9687 48.8488 90.1784 48.1375 90.4664 47.4567H93.351C93.6385 48.1389 93.8528 48.8496 93.9904 49.5769V49.7788H95.5577V49.5769C95.5722 49.4712 95.5721 49.2356 94.1971 45.9231ZM92.9568 46.3317H90.8654C91.4616 44.8894 91.7693 44.0962 91.9327 43.6587C92.077 44.0962 92.375 44.8798 92.9568 46.3317Z" fill="#999999"/>
<path d="M136.644 45.9231L109.827 50L103.692 9.94712L121.606 7.23077L121.053 11.5289L117.654 11.8077L117.418 13.7837L113.976 14.0721L113.476 18.0337L116.909 17.7452L115.466 28.9712L111.885 29.2692L111.351 33.5288L118.288 32.9471L117.736 37.25L117.471 39.2596L119.49 39.5192L135.981 41.6298L136.644 45.9231Z" fill="url(#paint0_linear_580_1772)"/>
<path d="M149.707 3.22115L144.861 40.7211L135.663 39.5481L119.75 37.5L120.361 32.7644L123.043 32.5481L133.139 31.7067C134.475 31.6978 135.763 31.206 136.764 30.3221C137.602 29.3513 138.107 28.1386 138.207 26.8606L138.611 23.7644C138.746 23.149 138.729 22.51 138.561 21.9026C138.394 21.2953 138.081 20.7379 137.649 20.2788C137.264 19.9076 136.804 19.6232 136.3 19.4449C135.795 19.2666 135.259 19.1985 134.726 19.2452H134.596L134.673 18.9471L139 13.9183L139.481 10.125L126.75 11.1827L126.389 14.0673L127.587 15.3173L133.274 14.8365L133.231 14.9856L128.904 20.0096L128.423 23.5L132.346 23.1731C133.635 23.0817 134.173 23.7356 133.971 25.1779L133.918 25.5962C133.874 26.1316 133.656 26.6381 133.298 27.0385C132.844 27.3777 132.293 27.5615 131.726 27.5625L120.913 28.5144L123.697 6.90865L124.596 0L149.707 3.22115Z" fill="url(#paint1_linear_580_1772)"/>
</g>
<defs>
<linearGradient id="paint0_linear_580_1772" x1="120.168" y1="7.23077" x2="120.168" y2="50" gradientUnits="userSpaceOnUse">
<stop stop-color="#F4D682"/>
<stop offset="0.4" stop-color="#ECC765"/>
<stop offset="0.75" stop-color="#E7BD53"/>
<stop offset="1" stop-color="#E5B94C"/>
</linearGradient>
<linearGradient id="paint1_linear_580_1772" x1="134.728" y1="0" x2="134.728" y2="40.7211" gradientUnits="userSpaceOnUse">
<stop stop-color="#F4D682"/>
<stop offset="0.4" stop-color="#ECC765"/>
<stop offset="0.75" stop-color="#E7BD53"/>
<stop offset="1" stop-color="#E5B94C"/>
</linearGradient>
<clipPath id="clip0_580_1772">
<rect width="149.707" height="50" fill="white"/>
</clipPath>
</defs>
</svg>
